<?xml version="1.0" encoding="UTF-8"?>
<!-- Generator: visioncortex VTracer 0.6.4 -->
<svg version="1.1" xmlns="http://www.w3.org/2000/svg" width="695" height="579">
<path d="M0 0 C3.33 3.39 5.23 6.97 5.81 11.7 C5.65 16.44 4.05 19.69 1.47 23.61 C0.84 24.57 0.21 25.53 -0.44 26.52 C-1.1 27.53 -1.77 28.54 -2.45 29.57 C-3.78 31.61 -5.1 33.64 -6.42 35.68 C-7.74 37.71 -9.07 39.73 -10.39 41.76 C-11.42 43.33 -11.42 43.33 -12.46 44.94 C-14.13 47.48 -15.79 50.03 -17.45 52.57 C-15.75 54.28 -13.57 53.72 -11.24 53.73 C-9.56 53.75 -9.56 53.75 -7.86 53.76 C-6.64 53.77 -5.42 53.78 -4.16 53.79 C-1.58 53.81 0.99 53.84 3.57 53.87 C7.63 53.91 11.7 53.95 15.77 53.98 C19.69 54 23.61 54.05 27.53 54.1 C29.32 54.1 29.32 54.1 31.14 54.11 C46.03 54.32 61.71 57.22 72.96 67.76 C81.37 77.37 86.09 88.76 86.29 101.49 C86.31 102.5 86.34 103.5 86.37 104.53 C86.46 108.21 86.51 111.89 86.55 115.57 C86.56 116.68 86.56 116.68 86.57 117.8 C86.7 130.78 86.71 143.75 86.71 156.72 C86.71 159.89 86.72 163.06 86.72 166.23 C86.73 177.32 86.73 188.41 86.73 199.5 C86.73 209.79 86.74 220.08 86.76 230.37 C86.77 239.26 86.78 248.15 86.78 257.04 C86.78 262.33 86.78 267.61 86.79 272.9 C86.8 277.86 86.8 282.83 86.79 287.79 C86.79 289.6 86.79 291.41 86.8 293.22 C86.86 312.38 85.93 328.74 71.89 343.32 C58.19 356.49 43.87 358.72 25.55 359.16 C24.68 359.19 23.82 359.21 22.92 359.23 C8.59 359.58 -5.72 359.58 -20.05 359.43 C-23.4 359.39 -26.74 359.36 -30.09 359.33 C-32.34 359.31 -34.59 359.29 -36.84 359.27 C-37.95 359.26 -39.07 359.25 -40.22 359.24 C-45.97 359.19 -51.72 359.12 -57.47 359.03 C-63.15 358.93 -68.84 358.88 -74.53 358.85 C-76.67 358.84 -78.8 358.81 -80.94 358.76 C-92.11 358.11 -92.11 358.11 -102.48 361.32 C-104.5 363.31 -105.97 365.18 -107.45 367.57 C-112.24 372.49 -117.32 377.03 -122.45 381.57 C-122.95 382.02 -123.45 382.47 -123.96 382.93 C-173.9 427.93 -239.44 450.58 -306.35 447.44 C-366.04 444.06 -422.02 421.67 -466 380.84 C-468.16 378.85 -470.35 376.92 -472.58 375.01 C-479.78 368.74 -486.29 361.85 -492.45 354.57 C-493.59 353.25 -493.59 353.25 -494.76 351.9 C-510.53 333.34 -531.2 307.95 -533.83 283.01 C-532.89 274.44 -529.69 267.62 -523.45 261.57 C-516.74 256.84 -509.43 254.87 -501.26 255.83 C-493.23 257.51 -488.16 262.21 -483.45 268.57 C-481.21 272.35 -479.21 276.24 -477.2 280.14 C-472.22 289.54 -467.01 298.21 -460.45 306.57 C-460 307.18 -459.54 307.78 -459.07 308.4 C-446.67 324.67 -432.3 339.88 -415.45 351.57 C-414.35 352.37 -413.24 353.17 -412.13 353.97 C-367.84 385.27 -312.51 396.01 -259.3 387.83 C-234.5 383.55 -209.08 374.16 -188.45 359.57 C-189.28 359.51 -189.28 359.51 -190.13 359.44 C-208.33 357.92 -223.41 355.54 -236.45 341.57 C-243.8 332.2 -246.41 323.25 -247.01 311.49 C-247.06 310.71 -247.1 309.92 -247.14 309.11 C-247.6 299.74 -247.6 290.36 -247.6 280.98 C-247.6 278.98 -247.6 276.99 -247.61 274.99 C-247.62 269.64 -247.62 264.28 -247.62 258.92 C-247.62 255.56 -247.62 252.21 -247.63 248.85 C-247.64 237.12 -247.64 225.39 -247.64 213.66 C-247.64 202.76 -247.65 191.85 -247.66 180.95 C-247.68 171.55 -247.68 162.16 -247.68 152.76 C-247.68 147.16 -247.68 141.56 -247.7 135.97 C-247.7 130.71 -247.7 125.45 -247.7 120.2 C-247.7 118.27 -247.7 116.35 -247.7 114.43 C-247.76 97.32 -246.99 81.54 -234.48 68.38 C-220.45 55.86 -203.86 54.5 -185.89 54.26 C-183.97 54.23 -183.97 54.23 -182.02 54.19 C-178.67 54.14 -175.31 54.09 -171.95 54.04 C-168.51 53.99 -165.07 53.94 -161.63 53.88 C-154.91 53.77 -148.18 53.67 -141.45 53.57 C-147.14 45.01 -152.85 36.46 -158.77 28.06 C-166.16 17.42 -166.16 17.42 -165.86 10.66 C-164.83 5.42 -161.71 1.07 -157.33 -1.93 C-152.6 -4.24 -147.58 -4.16 -142.45 -3.43 C-133.65 0.47 -128.66 10.67 -123.89 18.57 C-120.79 23.71 -117.55 28.76 -114.33 33.82 C-113.74 34.75 -113.16 35.67 -112.55 36.62 C-111.41 38.42 -110.24 40.21 -109.05 41.99 C-107.45 44.57 -107.45 44.57 -106.42 47.17 C-105.08 50.16 -104.1 51.6 -101.45 53.57 C-94.76 55.74 -87.61 55.72 -80.64 55.76 C-79.17 55.78 -79.17 55.78 -77.67 55.8 C-65.67 55.97 -65.67 55.97 -54.97 51.29 C-49.39 45.38 -46.12 38.4 -42.97 30.99 C-40.74 25.97 -37.8 21.52 -34.77 16.95 C-33.86 15.5 -32.96 14.05 -32.07 12.6 C-27.58 5.54 -23.51 -0.8 -15.58 -4.24 C-9.45 -4.78 -4.79 -3.83 0 0 Z M-180.11 114.2 C-181.98 117.5 -181.87 120.55 -181.83 124.23 C-181.84 125.01 -181.84 125.79 -181.85 126.59 C-181.86 129.19 -181.85 131.79 -181.84 134.39 C-181.85 136.25 -181.85 138.12 -181.86 139.98 C-181.87 145.05 -181.87 150.12 -181.86 155.18 C-181.85 160.48 -181.86 165.78 -181.86 171.08 C-181.87 179.98 -181.86 188.88 -181.84 197.78 C-181.83 208.07 -181.83 218.36 -181.85 228.65 C-181.86 237.49 -181.87 246.32 -181.86 255.15 C-181.85 260.43 -181.85 265.7 -181.86 270.98 C-181.87 275.94 -181.86 280.9 -181.85 285.87 C-181.84 287.69 -181.84 289.51 -181.85 291.33 C-181.86 293.82 -181.85 296.3 -181.83 298.79 C-181.84 299.51 -181.85 300.23 -181.85 300.97 C-181.8 305.34 -181.21 308.15 -178.45 311.57 C-175.3 313.8 -172.52 313.83 -168.73 313.84 C-167.56 313.85 -166.39 313.86 -165.19 313.87 C-163.91 313.87 -162.63 313.87 -161.31 313.86 C-159.95 313.87 -158.58 313.88 -157.22 313.89 C-153.51 313.9 -149.81 313.91 -146.1 313.91 C-143.78 313.91 -141.46 313.91 -139.14 313.92 C-131.02 313.94 -122.91 313.95 -114.79 313.94 C-107.26 313.94 -99.72 313.96 -92.19 314 C-85.7 314.02 -79.22 314.03 -72.73 314.03 C-68.86 314.03 -65 314.04 -61.14 314.06 C-37.01 314.18 -14.04 313.75 4.43 295.82 C14.56 285.05 20.52 271.41 20.55 256.49 C19.94 243.02 15.5 231.66 6.55 221.57 C5.8 220.65 5.8 220.65 5.04 219.71 C-0.23 213.73 -7.33 210.83 -14.45 207.57 C-13.68 207.05 -12.91 206.53 -12.11 205.99 C0.03 197.41 7.94 186.82 11.36 172.07 C11.42 170.92 11.48 169.76 11.55 168.57 C11.6 167.71 11.65 166.84 11.7 165.94 C12.18 151.08 7.93 138.68 -1.64 127.32 C-13.61 114.69 -28.8 110.34 -45.76 109.39 C-49.1 109.31 -52.43 109.29 -55.77 109.3 C-57.65 109.29 -57.65 109.29 -59.56 109.28 C-62.94 109.27 -66.31 109.27 -69.69 109.27 C-72.52 109.27 -75.36 109.27 -78.19 109.26 C-84.87 109.25 -91.56 109.25 -98.24 109.26 C-105.12 109.26 -111.99 109.25 -118.87 109.23 C-124.8 109.21 -130.73 109.21 -136.66 109.21 C-140.19 109.21 -143.72 109.21 -147.25 109.2 C-151.18 109.18 -155.11 109.19 -159.04 109.2 C-160.2 109.19 -161.36 109.19 -162.55 109.18 C-172.16 109.24 -172.16 109.24 -180.11 114.2 Z " fill="#F763B2" transform="translate(603.453125,79.42578125)"/>
<path d="M0 0 C8.33 -0.09 16.55 0.38 24.84 1.18 C26.88 1.37 28.92 1.55 30.96 1.73 C46.4 3.15 63.02 4.79 73.88 17.06 C79.12 24.29 79.87 31.32 78.88 40.06 C77.62 47.15 73.12 52.32 67.88 57.06 C57.12 64.03 45.51 62.55 33.34 60.85 C25.02 59.73 16.66 59.41 8.28 59.14 C6.22 59.07 4.17 58.99 2.12 58.9 C-51.6 57.55 -102.58 80.39 -141.11 116.87 C-168.07 143.19 -190.32 180.76 -197.12 218.06 C-196.4 217.59 -195.67 217.12 -194.93 216.63 C-179.06 206.42 -179.06 206.42 -170.12 207.06 C-163.66 209.09 -158.63 212.25 -155.12 218.06 C-152.77 224.34 -152.96 229.38 -154.91 235.74 C-156.51 238.8 -158.59 240.71 -161.12 243.06 C-162.02 243.91 -162.92 244.76 -163.85 245.64 C-168.65 250.07 -173.47 254.4 -178.56 258.5 C-183.98 262.86 -189.05 267.54 -194.13 272.29 C-197.02 274.98 -199.98 277.58 -202.97 280.15 C-204.73 281.71 -206.44 283.29 -208.15 284.9 C-227.26 302.96 -227.26 302.96 -238.12 303.06 C-245.84 301.92 -251.25 297.7 -256.01 291.67 C-258.01 288.88 -259.95 286.04 -261.87 283.18 C-262.57 282.16 -263.27 281.14 -263.99 280.09 C-265.39 278.04 -266.79 275.98 -268.18 273.92 C-270.34 270.73 -272.52 267.56 -274.71 264.39 C-276.03 262.47 -277.36 260.55 -278.68 258.62 C-281.01 255.22 -283.34 251.83 -285.69 248.43 C-286.4 247.4 -287.12 246.36 -287.85 245.29 C-289.48 242.98 -291.12 240.69 -292.8 238.42 C-293.25 237.81 -293.7 237.2 -294.16 236.56 C-295.02 235.4 -295.89 234.23 -296.76 233.08 C-300.9 227.44 -303.81 221.19 -303.46 214.07 C-302.46 208.16 -299.76 204.25 -295.06 200.62 C-289.91 196.99 -285.3 196.37 -279.12 197.06 C-272.72 198.9 -268.16 203.46 -263.42 207.94 C-261.4 209.81 -259.34 211.43 -257.12 213.06 C-256.95 212.36 -256.78 211.66 -256.61 210.95 C-245.36 165.23 -227.41 123.3 -195.21 88.33 C-193.26 86.21 -191.37 84.05 -189.5 81.87 C-175.1 65.38 -175.1 65.38 -168.12 63.06 C-168.12 62.4 -168.12 61.74 -168.12 61.06 C-166.59 59.65 -166.59 59.65 -164.42 58.01 C-163.61 57.4 -162.81 56.79 -161.98 56.16 C-161.1 55.51 -160.22 54.86 -159.31 54.18 C-158.41 53.51 -157.51 52.84 -156.58 52.15 C-110.75 18.46 -56.84 1.09 0 0 Z " fill="#F763B2" transform="translate(310.12255859375,4.940185546875)"/>
<path d="M0 0 C5.13 4.06 7.36 8.53 9.2 14.74 C9.46 17.56 9.46 17.56 9.47 20.53 C9.48 21.66 9.48 22.79 9.49 23.96 C9.49 25.18 9.49 26.41 9.49 27.67 C9.5 28.98 9.5 30.28 9.51 31.62 C9.53 35.19 9.53 38.75 9.53 42.31 C9.54 44.54 9.54 46.78 9.54 49.01 C9.56 56.8 9.57 64.59 9.57 72.38 C9.57 79.62 9.59 86.87 9.62 94.12 C9.65 100.35 9.66 106.59 9.66 112.82 C9.66 116.54 9.66 120.25 9.68 123.97 C9.71 128.12 9.7 132.27 9.69 136.42 C9.7 137.64 9.71 138.86 9.72 140.12 C9.65 149.98 7.54 156.9 0.64 164.12 C-0.13 164.93 -0.89 165.74 -1.68 166.58 C-2.38 167.29 -3.08 168.01 -3.8 168.74 C-4.62 169.63 -4.62 169.63 -5.45 170.53 C-6.8 171.74 -6.8 171.74 -8.8 171.74 C-9.04 172.3 -9.28 172.87 -9.52 173.44 C-11.09 176.27 -13.02 178.22 -15.3 180.51 C-16.19 181.4 -17.07 182.29 -17.99 183.2 C-18.92 184.12 -19.84 185.04 -20.8 185.99 C-21.73 186.93 -22.66 187.86 -23.61 188.83 C-24.5 189.71 -25.39 190.6 -26.3 191.51 C-27.12 192.32 -27.93 193.13 -28.77 193.97 C-30.8 195.74 -30.8 195.74 -32.8 195.74 C-33.05 196.32 -33.3 196.9 -33.55 197.49 C-34.98 200.07 -36.59 201.8 -38.8 203.74 C-39.46 203.74 -40.12 203.74 -40.8 203.74 C-41.01 204.27 -41.21 204.8 -41.43 205.35 C-43.37 208.73 -46.04 211.33 -48.77 214.08 C-49.36 214.69 -49.96 215.29 -50.57 215.91 C-51.83 217.19 -53.1 218.46 -54.37 219.73 C-56.28 221.66 -58.17 223.6 -60.07 225.54 C-74.94 240.62 -74.94 240.62 -85.93 241.24 C-94.09 240.76 -100.99 237.51 -106.8 231.74 C-111.4 225.18 -113.72 218.82 -112.8 210.74 C-110.75 201.38 -104.32 195.29 -97.8 188.74 C-97.04 187.96 -96.27 187.18 -95.48 186.38 C-92.72 183.59 -89.92 180.86 -87.11 178.12 C-85.31 176.27 -83.72 174.43 -82.11 172.43 C-81.35 171.54 -80.59 170.66 -79.8 169.74 C-79.14 169.74 -78.48 169.74 -77.8 169.74 C-77.54 169.15 -77.27 168.56 -77 167.96 C-75.75 165.64 -74.43 164.14 -72.56 162.29 C-71.9 161.64 -71.25 160.98 -70.57 160.31 C-69.86 159.61 -69.15 158.92 -68.42 158.2 C-67.33 157.12 -67.33 157.12 -66.22 156.02 C-63.9 153.71 -61.57 151.41 -59.24 149.12 C-56.91 146.81 -54.58 144.51 -52.25 142.2 C-50.8 140.76 -49.35 139.33 -47.89 137.9 C-47.24 137.25 -46.59 136.6 -45.91 135.94 C-45.04 135.08 -45.04 135.08 -44.16 134.21 C-41.61 131.46 -41.68 129.43 -41.7 125.79 C-41.71 124.74 -41.71 123.7 -41.71 122.62 C-41.73 120.9 -41.73 120.9 -41.74 119.14 C-41.75 116.65 -41.76 114.15 -41.76 111.66 C-41.77 110.33 -41.78 108.99 -41.78 107.66 C-41.81 100.73 -41.81 93.8 -41.81 86.87 C-41.81 86.16 -41.81 85.45 -41.81 84.72 C-41.81 79.73 -41.81 74.74 -41.8 69.74 C-41.8 68.72 -41.8 68.72 -41.8 67.68 C-41.79 59.33 -41.74 50.98 -41.65 42.63 C-41.63 40.26 -41.61 37.89 -41.61 35.52 C-41.6 32.22 -41.56 28.91 -41.51 25.61 C-41.51 24.65 -41.52 23.69 -41.52 22.7 C-41.33 13.96 -38.36 6.98 -32.11 0.8 C-22.05 -7.19 -10.49 -6.88 0 0 Z " fill="#F763B2" transform="translate(293.80078125,114.2578125)"/>
<path d="M0 0 C1.6 0 3.21 0.01 4.81 0.02 C5.68 0.03 6.56 0.03 7.46 0.03 C10.36 0.05 13.27 0.07 16.17 0.09 C17.16 0.1 18.16 0.1 19.18 0.11 C24.43 0.15 29.69 0.19 34.95 0.24 C40.37 0.29 45.78 0.32 51.2 0.34 C55.38 0.36 59.55 0.4 63.72 0.44 C65.72 0.46 67.72 0.47 69.71 0.47 C72.52 0.48 75.32 0.51 78.13 0.55 C78.94 0.54 79.76 0.54 80.6 0.54 C89.49 0.71 96.41 4.3 102.83 10.33 C107.59 15.44 108.63 21.31 108.49 28.11 C107.41 35.66 104.22 41.12 98.49 46.11 C87.64 53.82 72.93 52.39 60.29 52.34 C58.45 52.34 56.6 52.34 54.76 52.34 C50.92 52.34 47.09 52.33 43.25 52.32 C38.32 52.3 33.39 52.29 28.46 52.29 C24.67 52.29 20.88 52.29 17.08 52.28 C15.26 52.28 13.45 52.28 11.63 52.28 C9.1 52.27 6.57 52.27 4.04 52.25 C2.91 52.26 2.91 52.26 1.76 52.26 C-3.4 52.22 -3.4 52.22 -4.51 51.11 C-4.61 49.55 -4.64 47.98 -4.64 46.42 C-4.65 45.42 -4.65 44.43 -4.65 43.4 C-4.65 42.31 -4.65 41.23 -4.65 40.11 C-4.65 39 -4.65 37.9 -4.65 36.76 C-4.65 34.41 -4.65 32.07 -4.64 29.73 C-4.64 26.12 -4.64 22.52 -4.65 18.92 C-4.65 16.65 -4.65 14.38 -4.65 12.11 C-4.65 11.02 -4.65 9.94 -4.65 8.82 C-4.65 7.82 -4.65 6.82 -4.64 5.8 C-4.64 4.91 -4.64 4.03 -4.64 3.12 C-4.42 -0.4 -3.66 0.11 0 0 Z " fill="#F762B1" transform="translate(469.514404296875,306.8907928466797)"/>
<path d="M0 0 C21.64 -0.16 21.64 -0.16 30.89 -0.2 C37.19 -0.22 43.5 -0.25 49.8 -0.3 C54.88 -0.35 59.97 -0.37 65.05 -0.38 C66.98 -0.39 68.92 -0.4 70.86 -0.42 C73.58 -0.45 76.29 -0.46 79.01 -0.45 C79.81 -0.47 80.6 -0.48 81.42 -0.5 C88.4 -0.45 93.43 1.84 98.75 6.31 C103.92 12.49 106.47 17.85 106 26 C104.42 33.58 101.32 39.43 95 44 C76.85 54.67 47.73 49.99 27.75 49.56 C25.05 49.51 22.34 49.46 19.64 49.4 C13.09 49.28 6.55 49.14 0 49 C0 32.83 0 16.66 0 0 Z " fill="#F763B2" transform="translate(465,225)"/>
<path d="M0 0 C0.99 0.33 1.98 0.66 3 1 C3.05 24.72 3.08 48.44 3.1 72.17 C3.11 83.18 3.13 94.2 3.15 105.21 C3.17 114.81 3.18 124.41 3.19 134.01 C3.19 139.1 3.2 144.18 3.21 149.26 C3.23 154.05 3.23 158.84 3.23 163.62 C3.23 165.38 3.23 167.13 3.24 168.89 C3.25 171.29 3.25 173.69 3.24 176.09 C3.25 176.78 3.25 177.47 3.26 178.18 C3.23 183.1 2.32 187.3 1 192 C0.67 192 0.34 192 0 192 C0 128.64 0 65.28 0 0 Z " fill="#F858A7" transform="translate(687,205)"/>
<path d="M0 0 C1.75 0.12 1.75 0.12 4 1 C8.37 6.52 10.25 11.84 10.24 18.85 C10.24 19.99 10.25 21.13 10.25 22.31 C10.24 23.55 10.23 24.8 10.23 26.07 C10.23 27.39 10.23 28.71 10.23 30.07 C10.23 33.67 10.22 37.27 10.2 40.87 C10.19 44.64 10.19 48.4 10.19 52.17 C10.18 59.3 10.16 66.43 10.14 73.56 C10.12 81.68 10.11 89.8 10.1 97.91 C10.08 114.61 10.04 131.3 10 148 C9.34 148.33 8.68 148.66 8 149 C8 148.31 8 147.62 7.99 146.91 C7.93 130.15 7.86 113.38 7.76 96.61 C7.72 88.5 7.68 80.39 7.65 72.28 C7.63 65.21 7.6 58.14 7.55 51.07 C7.53 47.33 7.51 43.59 7.5 39.85 C7.5 35.66 7.46 31.48 7.43 27.3 C7.43 26.07 7.44 24.83 7.44 23.56 C7.33 14.16 5.54 7.65 0 0 Z " fill="#F6539E" transform="translate(293,116)"/>
<path d="M0 0 C0.66 0 1.32 0 2 0 C2 38.61 2 77.22 2 117 C1.01 117.5 1.01 117.5 0 118 C-0.85 105.26 -1.16 92.58 -1.12 79.81 C-1.12 78.88 -1.12 77.95 -1.12 76.99 C-1.09 51.32 -0.55 25.66 0 0 Z " fill="#F657AB" transform="translate(253,129)"/>
<path d="M0 0 C0 0.66 0 1.32 0 2 C-2.31 3.54 -4.62 4.97 -7 6.38 C-19.66 14.07 -31.16 22.91 -42 33 C-43.27 34.09 -44.54 35.17 -45.81 36.25 C-57.83 46.76 -68 58.59 -77.59 71.32 C-79 73 -79 73 -81 74 C-79.53 69.62 -77.17 66.26 -74.31 62.69 C-73.83 62.09 -73.36 61.48 -72.86 60.86 C-64.55 50.57 -55.35 41.02 -45.69 32 C-45.14 31.49 -44.6 30.98 -44.04 30.45 C-40.25 27 -40.25 27 -38 27 C-38 26.34 -38 25.68 -38 25 C-36.42 23.55 -36.42 23.55 -34.19 21.88 C-33.37 21.26 -32.54 20.64 -31.7 20 C-30.81 19.34 -29.92 18.68 -29 18 C-28.1 17.33 -27.2 16.66 -26.27 15.97 C-20.6 11.79 -14.85 7.8 -8.88 4.06 C-8.21 3.64 -7.54 3.23 -6.85 2.79 C-2.27 0 -2.27 0 0 0 Z " fill="#F5599F" transform="translate(180,41)"/>
<path d="M0 0 C0.33 0 0.66 0 1 0 C1 13.53 1 27.06 1 41 C28.72 41 56.44 41 85 41 C85 41.66 85 42.32 85 43 C79.97 43.83 75.14 44.12 70.05 44.02 C69.28 44.01 68.52 44 67.74 43.99 C65.24 43.96 62.75 43.92 60.25 43.88 C58.52 43.85 56.78 43.83 55.04 43.81 C50.48 43.74 45.92 43.68 41.36 43.61 C35.88 43.52 30.4 43.45 24.92 43.37 C16.62 43.25 8.31 43.13 0 43 C0 28.81 0 14.62 0 0 Z " fill="#F853A0" transform="translate(466,230)"/>
<path d="M0 0 C7.2 6.7 13.48 15.69 17.75 24.56 C17.34 26.74 17.34 26.74 16.75 28.56 C15.77 26.97 15.77 26.97 14.77 25.34 C7.38 11.22 7.38 11.22 -4.25 1.56 C-9.3 0.8 -13.79 0.8 -18.25 3.5 C-21.52 6.24 -22.62 9.08 -23.21 13.25 C-23.33 20.76 -18.52 26.38 -14.3 32.17 C-11.25 36.37 -11.25 36.37 -11.25 38.56 C-15.4 37.04 -16.96 34.45 -19.31 30.81 C-19.98 29.79 -20.66 28.76 -21.35 27.7 C-24.76 22.06 -27.58 17.32 -26.25 10.56 C-24.21 5.58 -21.23 1.58 -16.34 -0.81 C-10.77 -2.48 -5.3 -2.35 0 0 Z " fill="#F55AA2" transform="translate(464.25,77.4375)"/>
<path d="M0 0 C0.5 1.49 0.5 1.49 1 3 C-5.06 14.24 -16.1 22.36 -28.07 26.12 C-36.57 28.47 -44.93 28.69 -53.71 28.78 C-56.39 28.81 -59.08 28.87 -61.76 28.93 C-63.49 28.96 -65.23 28.99 -66.96 29.02 C-67.75 29.03 -68.54 29.05 -69.35 29.06 C-74.33 29.11 -79.09 28.87 -84 28 C-84.33 27.34 -84.66 26.68 -85 26 C-84.44 25.99 -83.88 25.99 -83.3 25.98 C-77.39 25.92 -71.48 25.83 -65.58 25.74 C-63.38 25.7 -61.18 25.68 -58.99 25.65 C-39.35 25.44 -22 24.31 -6.91 10.1 C-4.1 7.01 -1.95 3.68 0 0 Z " fill="#F656A0" transform="translate(682,410)"/>
<path d="M0 0 C30.69 0 61.38 0 93 0 C93 0.66 93 1.32 93 2 C81.17 2.15 69.34 2.3 57.51 2.44 C52.02 2.51 46.52 2.58 41.03 2.65 C35.73 2.72 30.44 2.78 25.14 2.84 C23.11 2.87 21.09 2.89 19.06 2.92 C16.24 2.96 13.41 2.99 10.58 3.02 C9.31 3.04 9.31 3.04 8.02 3.06 C2.23 3.11 2.23 3.11 0 2 C0 1.34 0 0.68 0 0 Z " fill="#F7539E" transform="translate(503,436)"/>
<path d="M0 0 C8.79 -0.09 17.58 -0.16 26.37 -0.21 C30.45 -0.23 34.53 -0.26 38.61 -0.3 C42.56 -0.35 46.51 -0.37 50.46 -0.38 C51.96 -0.39 53.46 -0.4 54.95 -0.42 C66.82 -0.59 77.29 0.93 87.25 7.75 C88.62 8.67 88.62 8.67 90.02 9.61 C91 10.3 91 10.3 92 11 C90.31 11.75 90.31 11.75 88 12 C86.33 10.67 84.66 9.34 83 8 C73.47 2.95 64.18 2.26 53.64 2.29 C52.11 2.28 50.58 2.26 49.05 2.25 C45.07 2.21 41.1 2.2 37.12 2.19 C33.05 2.18 28.97 2.15 24.89 2.11 C16.93 2.05 8.96 2.01 1 2 C0.67 1.34 0.34 0.68 0 0 Z " fill="#F558A0" transform="translate(583,135)"/>
<path d="M0 0 C0 0.66 0 1.32 0 2 C-1.03 2.47 -1.03 2.47 -2.07 2.96 C-21.19 11.83 -21.19 11.83 -39 23 C-39.62 23.44 -40.24 23.87 -40.88 24.33 C-53.7 33.4 -64.95 43.88 -76 55 C-76.66 54.67 -77.32 54.34 -78 54 C-67.62 40.99 -54.65 30.37 -41 21 C-40.43 20.61 -39.85 20.21 -39.26 19.8 C-31.93 14.8 -24.69 10.21 -16.62 6.5 C-15.99 6.2 -15.36 5.91 -14.7 5.61 C-2.6 0 -2.6 0 0 0 Z " fill="#F658A1" transform="translate(236,76)"/>
<path d="M0 0 C2.77 2.43 4.08 4.93 5.62 8.25 C11 19.23 17.19 29.46 24.9 38.96 C28 42.81 28 42.81 28 45 C28.66 45 29.32 45 30 45 C30.97 46.42 31.94 47.85 32.86 49.31 C35.37 53.03 38.68 56.16 41.76 59.41 C43.65 61.6 44.9 63.36 46 66 C41.92 64.41 39.32 61.48 36.44 58.31 C35.91 57.74 35.39 57.17 34.85 56.58 C23.16 43.55 13.72 28.63 5 13.5 C4.61 12.84 4.23 12.18 3.83 11.5 C1.66 7.67 0.43 4.39 0 0 Z " fill="#F4569F" transform="translate(74,375)"/>
<path d="M0 0 C2.61 3.21 5.08 6.46 7.43 9.85 C8.08 10.78 8.72 11.7 9.38 12.65 C10.4 14.12 10.4 14.12 11.44 15.62 C12.15 16.65 12.85 17.67 13.58 18.72 C18.53 25.85 23.43 33.01 28.32 40.17 C33.79 48.18 39.38 56.1 45 64 C44.34 64.66 43.68 65.32 43 66 C35.68 55.67 28.43 45.3 21.27 34.85 C19.33 32.02 17.39 29.2 15.44 26.38 C14.37 24.82 14.37 24.82 13.28 23.24 C11.63 20.9 9.96 18.59 8.25 16.29 C7.57 15.36 7.57 15.36 6.86 14.41 C5.98 13.21 5.09 12.02 4.19 10.84 C1.55 7.26 0.37 4.44 0 0 Z " fill="#F5579D" transform="translate(9,227)"/>
<path d="M0 0 C0.66 0 1.32 0 2 0 C2 20.13 2 40.26 2 61 C1.01 61.5 1.01 61.5 0 62 C-0.78 49.54 -1.16 37.13 -1.13 24.64 C-1.12 21.95 -1.13 19.25 -1.14 16.55 C-1.14 14.83 -1.13 13.1 -1.13 11.38 C-1.13 10.58 -1.14 9.78 -1.14 8.95 C-1.13 5.71 -1.03 3.1 0 0 Z " fill="#F750A4" transform="translate(357,322)"/>
<path d="M0 0 C11.99 0.46 21.15 3.04 29.89 11.59 C36.44 19.08 36.54 26.33 36 36 C35.34 36 34.68 36 34 36 C33.9 35 33.8 34 33.7 32.96 C32.63 23 31.2 15.88 23.06 9.28 C19.33 6.96 15.22 6.08 11 5 C10.09 4.63 9.19 4.26 8.25 3.88 C5.53 2.82 2.88 2.4 0 2 C0 1.34 0 0.68 0 0 Z " fill="#F45CA3" transform="translate(353,9)"/>
<path d="M0 0 C0.33 0 0.66 0 1 0 C2.1 5.3 2.13 10.39 2.1 15.77 C2.1 17.16 2.1 17.16 2.09 18.57 C2.09 21.51 2.08 24.44 2.06 27.38 C2.06 29.37 2.05 31.37 2.05 33.36 C2.04 38.24 2.02 43.12 2 48 C1.01 48.5 1.01 48.5 0 49 C-0.92 40.23 -1.16 31.51 -1.13 22.7 C-1.12 20.54 -1.13 18.38 -1.14 16.23 C-1.14 14.84 -1.13 13.45 -1.13 12.07 C-1.13 10.83 -1.13 9.59 -1.13 8.31 C-1.02 5.41 -0.67 2.82 0 0 Z " fill="#F95BAC" transform="translate(357,272)"/>
<path d="M0 0 C4.97 1.06 7.67 2.99 10.73 6.89 C13.54 11.57 14.39 16.3 13.62 21.69 C12.18 27.25 10.25 30.05 6 34 C5.02 34.94 4.04 35.88 3.06 36.82 C2.04 37.78 1.02 38.73 0 39.69 C-0.51 40.17 -1.02 40.66 -1.54 41.16 C-4.52 43.93 -7.11 45.78 -11 47 C-11 46.34 -11 45.68 -11 45 C-9.37 43.52 -7.67 42.12 -5.94 40.75 C-4.94 39.94 -3.93 39.14 -2.9 38.31 C-1.21 36.96 0.48 35.62 2.18 34.29 C5.95 31.23 8.48 28.75 10 24 C10.52 18.27 10.62 13.23 8 8 C5.13 5.37 2.24 3.16 -1 1 C-0.67 0.67 -0.34 0.34 0 0 Z " fill="#F75AA2" transform="translate(143,214)"/>
<path d="M0 0 C5.07 2.11 9.98 4.45 14.88 6.94 C25.95 12.91 25.95 12.91 38 16 C38 16.66 38 17.32 38 18 C39.22 18.29 40.43 18.58 41.69 18.88 C44.92 19.68 47.94 20.66 51 22 C51 22.33 51 22.66 51 23 C43.77 22.51 37.74 20.23 31.06 17.5 C29.97 17.06 28.87 16.61 27.74 16.15 C21.03 13.38 14.44 10.43 8 7.06 C7.29 6.7 6.59 6.33 5.86 5.96 C1.13 3.38 1.13 3.38 0 0 Z " fill="#F558A2" transform="translate(182,491)"/>
<path d="M0 0 C0.33 0.99 0.66 1.98 1 3 C-0.27 5.4 -0.27 5.4 -2.25 8.38 C-10.19 20.72 -17.37 33.88 -22.1 47.8 C-23 50 -23 50 -25 51 C-22.64 33.16 -10.75 14.04 0 0 Z " fill="#F659A2" transform="translate(143,149)"/>
<path d="M0 0 C3.7 2.95 6.01 6.35 7.25 10.94 C7.27 13.8 6.85 16.12 6.25 18.94 C5.59 18.61 4.93 18.28 4.25 17.94 C3.98 16.08 3.98 16.08 3.88 13.75 C3.46 9.2 2.27 6.48 -0.75 2.94 C-2.85 1.55 -2.85 1.55 -4.75 0.94 C-4.75 0.28 -4.75 -0.38 -4.75 -1.06 C-6.83 -0.61 -8.92 -0.15 -11 0.31 C-12.16 0.57 -13.32 0.82 -14.52 1.09 C-17.23 1.8 -19.39 2.44 -21.75 3.94 C-22.48 5.58 -23.14 7.25 -23.75 8.94 C-25.05 10.96 -26.37 12.97 -27.75 14.94 C-28.75 11.94 -28.75 11.94 -27.71 9.82 C-21 0.02 -11.7 -7.42 0 0 Z " fill="#F25CA3" transform="translate(601.75,78.0625)"/>
<path d="M0 0 C9.38 3.17 14.24 12.33 18.52 20.74 C23.23 31.13 24.49 41.79 22 53 C21.67 53 21.34 53 21 53 C20.96 52 20.93 50.99 20.89 49.96 C20.08 31.84 16.44 17.04 3 4 C2.01 3.34 1.02 2.68 0 2 C0 1.34 0 0.68 0 0 Z " fill="#F659A2" transform="translate(594,199)"/>
<path d="M0 0 C0 0.33 0 0.66 0 1 C-6.12 1.57 -12.24 2.14 -18.36 2.71 C-20.44 2.9 -22.52 3.1 -24.6 3.29 C-27.6 3.57 -30.59 3.85 -33.59 4.12 C-34.51 4.21 -35.44 4.3 -36.39 4.39 C-41.62 4.87 -46.75 5.09 -52 5 C-51.67 4.34 -51.34 3.68 -51 3 C-49.18 2.51 -49.18 2.51 -46.79 2.18 C-45.91 2.06 -45.02 1.94 -44.1 1.81 C-43.14 1.69 -42.18 1.56 -41.19 1.44 C-40.2 1.31 -39.22 1.18 -38.21 1.05 C-31.54 0.22 -24.89 -0.39 -18.19 -0.75 C-17 -0.82 -17 -0.82 -15.79 -0.89 C-10.42 -1.12 -5.33 -0.7 0 0 Z " fill="#F45EA5" transform="translate(316,6)"/>
<path d="M0 0 C0.66 0 1.32 0 2 0 C0.33 5.94 -3.98 11.06 -9.13 14.37 C-19.32 19.52 -30.14 19 -41 16 C-41 15.34 -41 14.68 -41 14 C-39.93 14.16 -38.86 14.33 -37.75 14.5 C-26.26 15.88 -16.9 15.3 -7 9 C-6.34 9 -5.68 9 -5 9 C-4.73 8.44 -4.46 7.89 -4.19 7.31 C-2.89 4.79 -1.58 2.36 0 0 Z " fill="#F65AA4" transform="translate(385,49)"/>
<path d="M0 0 C0.62 0.47 1.24 0.95 1.88 1.44 C-1.12 2.44 -1.12 2.44 -4.12 1.44 C-6.41 1.32 -8.71 1.26 -11 1.25 C-12.21 1.24 -13.43 1.22 -14.68 1.21 C-18.95 1.49 -21.78 2.1 -24.86 5.16 C-25.34 5.79 -25.82 6.42 -26.31 7.06 C-27.79 8.98 -27.79 8.98 -29.12 10.44 C-29.79 10.44 -30.44 10.44 -31.12 10.44 C-31.79 12.42 -32.44 14.4 -33.12 16.44 C-33.88 14.81 -33.88 14.81 -34.12 12.44 C-30.64 5.77 -25.46 0.97 -18.31 -1.5 C-11.92 -3.15 -5.94 -2.97 0 0 Z " fill="#F75BA5" transform="translate(289.125,111.5625)"/>
<path d="M0 0 C-2 2 -2 2 -4.75 3.31 C-11.5 6.82 -15.32 10.93 -18.19 17.88 C-19.93 24.56 -18.66 30.46 -17 37 C-17.99 37 -18.98 37 -20 37 C-22.42 28.37 -22.91 21.27 -19 13 C-14.69 6.05 -9.04 -1.1 0 0 Z " fill="#F658A3" transform="translate(92,337)"/>
<path d="M0 0 C0.5 1.49 0.5 1.49 1 3 C-2.88 6.98 -6.78 10.95 -10.69 14.91 C-12.02 16.26 -13.34 17.61 -14.66 18.96 C-16.56 20.91 -18.47 22.84 -20.39 24.78 C-21.27 25.69 -21.27 25.69 -22.16 26.62 C-25.28 29.74 -27.37 31.75 -32 32 C-31.28 31.3 -30.56 30.6 -29.81 29.88 C-27.95 28.02 -26.35 26.19 -24.69 24.12 C-22.81 21.83 -20.83 19.92 -18.56 18 C-11.99 12.42 -6.05 6.13 0 0 Z " fill="#F75BA4" transform="translate(250,319)"/>
<path d="M0 0 C0.5 1.49 0.5 1.49 1 3 C0.09 3.72 -0.81 4.44 -1.75 5.19 C-3.75 6.85 -5.25 8.32 -6.88 10.38 C-9.25 13.31 -11.85 15.59 -14.71 18.03 C-18.1 20.95 -21.4 23.97 -24.7 26.98 C-29.02 30.77 -29.02 30.77 -31 32 C-31.99 31.67 -32.98 31.34 -34 31 C-33 30.22 -33 30.22 -31.99 29.43 C-27.41 25.81 -23.08 22.19 -19 18 C-17.48 16.66 -15.96 15.33 -14.44 14 C-11.25 11.19 -8.62 8.35 -6 5 C-4.06 3.25 -2.05 1.63 0 0 Z " fill="#F559A1" transform="translate(499,440)"/>
<path d="M0 0 C14.36 -0.17 28.66 0.34 43 1 C39.38 3.28 36.33 3.24 32.11 3.23 C31.11 3.23 31.11 3.23 30.1 3.23 C28.7 3.23 27.29 3.22 25.89 3.21 C23.77 3.19 21.65 3.19 19.53 3.19 C12.95 3.17 6.5 3.05 0 2 C0 1.34 0 0.68 0 0 Z " fill="#F656A2" transform="translate(284,470)"/>
<path d="M0 0 C4.01 1.34 5.36 3.76 8 7 C13.24 10.5 19.59 10.41 25.69 9.38 C29.78 7.68 33.35 5.49 37 3 C35.05 7.4 32.21 9.78 28 12 C22.03 14.19 17.04 14.49 11.11 12.12 C6.48 9.67 2.92 6.84 0.56 2.12 C0.38 1.42 0.19 0.72 0 0 Z " fill="#F657A2" transform="translate(54,294)"/>
<path d="M0 0 C3.78 0.53 5.79 1.35 8.62 3.88 C13.34 7.72 18.42 10.72 23.69 13.75 C24.51 14.22 25.33 14.69 26.17 15.18 C30.39 17.58 34.63 19.88 39 22 C39 22.66 39 23.32 39 24 C33.27 23.09 28.97 20.43 24 17.56 C23.07 17.03 22.14 16.49 21.18 15.94 C13.66 11.55 6.54 6.79 0 1 C0 0.67 0 0.34 0 0 Z " fill="#F758A4" transform="translate(181,428)"/>
<path d="M0 0 C0.66 0.66 1.32 1.32 2 2 C-6.56 6.21 -15.23 10 -24.12 13.44 C-25.03 13.79 -25.93 14.15 -26.85 14.51 C-27.71 14.84 -28.56 15.16 -29.45 15.5 C-30.2 15.79 -30.96 16.08 -31.74 16.38 C-34.25 17.07 -36.41 17.11 -39 17 C-39 16.34 -39 15.68 -39 15 C-37.87 14.69 -36.73 14.37 -35.56 14.05 C-32.46 13.17 -29.35 12.28 -26.26 11.36 C-25.55 11.14 -24.83 10.93 -24.1 10.71 C-21.3 9.76 -18.69 8.55 -16.11 7.11 C-12.99 5.47 -9.75 4.13 -6.5 2.75 C-5.86 2.48 -5.23 2.21 -4.57 1.93 C-3.05 1.28 -1.52 0.64 0 0 Z " fill="#F559A1" transform="translate(420,499)"/>
<path d="M0 0 C0.66 0.33 1.32 0.66 2 1 C0.92 2.3 -0.16 3.59 -1.25 4.88 C-1.85 5.59 -2.46 6.31 -3.08 7.05 C-5 9 -5 9 -7.11 10.01 C-9.14 10.83 -9.14 10.83 -9.87 12.81 C-11.21 15.41 -12.83 17.06 -14.91 19.11 C-15.67 19.86 -16.44 20.62 -17.22 21.39 C-18.01 22.17 -18.81 22.95 -19.62 23.75 C-20.43 24.54 -21.23 25.34 -22.05 26.15 C-24.03 28.11 -26.01 30.06 -28 32 C-28.33 31.01 -28.66 30.02 -29 29 C-19.43 19.43 -9.86 9.86 0 0 Z " fill="#F55CA5" transform="translate(250,248)"/>
<path d="M0 0 C-1.2 3.59 -2.14 4.04 -5.23 6.07 C-6.11 6.66 -6.99 7.24 -7.9 7.84 C-8.84 8.45 -9.78 9.06 -10.75 9.69 C-11.7 10.31 -12.65 10.93 -13.63 11.57 C-15.54 12.82 -17.45 14.06 -19.36 15.29 C-21.63 16.76 -23.89 18.24 -26.14 19.73 C-27.28 20.47 -28.42 21.2 -29.56 21.94 C-30.53 22.57 -31.5 23.19 -32.5 23.84 C-35 25 -35 25 -37.34 24.69 C-37.89 24.46 -38.44 24.24 -39 24 C-38.27 23.56 -37.54 23.13 -36.79 22.68 C-19.9 12.62 -19.9 12.62 -3.86 1.29 C-2 0 -2 0 0 0 Z " fill="#F558A0" transform="translate(464,473)"/>
<path d="M0 0 C0.92 0 1.84 0 2.79 0 C5.69 0.01 8.59 0.02 11.5 0.04 C13.48 0.04 15.46 0.04 17.44 0.05 C22.27 0.06 27.1 0.08 31.93 0.1 C31.93 0.43 31.93 0.76 31.93 1.1 C25.23 1.73 18.61 2.15 11.87 2.04 C4.87 1.97 -1.97 2.58 -8.93 3.39 C-14.35 4 -19.61 4.19 -25.07 4.1 C-16.86 -0.01 -9.11 -0.05 0 0 Z " fill="#F757A1" transform="translate(297.06640625,61.90234375)"/>
<path d="M0 0 C24.75 0.5 24.75 0.5 50 1 C50 1.33 50 1.66 50 2 C40.7 2.85 31.46 3.11 22.12 3.12 C21.07 3.13 20.01 3.13 18.92 3.14 C12.88 3.13 6.98 2.97 1 2 C0.67 1.34 0.34 0.68 0 0 Z " fill="#F658A0" transform="translate(274,523)"/>
<path d="M0 0 C3.15 -0.36 4.72 -0.16 7.5 1.44 C12.83 6.9 15.69 12.85 16.15 20.49 C15.9 24.61 14.61 28.23 13 32 C12.34 32 11.68 32 11 32 C11.16 31.09 11.33 30.19 11.5 29.25 C13.12 18.95 13.12 18.95 10.06 9.44 C9.38 8.63 8.7 7.83 8 7 C7.67 6.01 7.34 5.02 7 4 C5.35 3.28 3.69 2.62 2 2 C1.34 1.34 0.68 0.68 0 0 Z " fill="#F75CA5" transform="translate(555,228)"/>
<path d="M0 0 C6.32 1.78 11.29 6.51 14.94 11.81 C17.13 18.39 17.9 24.53 15 31 C14.67 31 14.34 31 14 31 C13.96 29.99 13.93 28.97 13.89 27.93 C13.82 26.58 13.75 25.23 13.69 23.88 C13.66 23.21 13.64 22.54 13.62 21.86 C13.32 16.39 12.11 12.24 8.32 8.21 C7.74 7.75 7.16 7.29 6.56 6.81 C5.95 6.32 5.35 5.83 4.72 5.32 C1.88 3.13 1.88 3.13 -1 1 C-0.67 0.67 -0.34 0.34 0 0 Z " fill="#F65BA4" transform="translate(561,310)"/>
<path d="M0 0 C1.75 0.12 1.75 0.12 4 1 C8.44 6.61 10.27 11.94 10.2 19.05 C10.19 20.72 10.19 20.72 10.18 22.41 C10.16 23.56 10.14 24.7 10.12 25.88 C10.12 27.04 10.11 28.21 10.1 29.41 C10.07 32.27 10.04 35.14 10 38 C7.51 35.51 7.74 34.7 7.69 31.27 C7.65 29.85 7.65 29.85 7.62 28.39 C7.58 26.41 7.55 24.42 7.52 22.43 C7.28 13.58 5.21 7.19 0 0 Z " fill="#F657A1" transform="translate(293,116)"/>
<path d="M0 0 C3.09 0.61 5.2 1.6 7.75 3.44 C8.36 3.87 8.98 4.3 9.61 4.75 C10.3 5.37 10.3 5.37 11 6 C11 6.66 11 7.32 11 8 C11.66 8.23 12.33 8.46 13.01 8.69 C16.89 10.39 20.29 12.6 23.81 14.94 C24.51 15.38 25.2 15.82 25.91 16.28 C27.66 17.44 29.34 18.71 31 20 C31 20.99 31 21.98 31 23 C4.79 7.19 4.79 7.19 0 0 Z " fill="#F558A0" transform="translate(149,469)"/>
<path d="M0 0 C3.88 1.57 6.2 4.06 9.06 7.06 C13.7 11.86 18.56 15.99 23.88 20.03 C26.17 22.16 26.42 23.05 27 26 C21.16 21.82 15.88 17.27 10.69 12.31 C9.99 11.65 9.28 10.99 8.56 10.3 C6.7 8.54 4.84 6.78 3 5 C2.43 4.48 1.87 3.95 1.28 3.41 C0 2 0 2 0 0 Z " fill="#F55AA2" transform="translate(121,443)"/>
<path d="M0 0 C2.48 0.5 2.48 0.5 5 1 C5 1.66 5 2.32 5 3 C6.1 3.37 6.1 3.37 7.22 3.75 C14.85 7.19 21.24 15.66 25 23 C25 23.99 25 24.98 25 26 C24.34 26 23.68 26 23 26 C21.81 24.13 21.81 24.13 20.44 21.56 C15.76 13.53 9.61 7.42 1.43 2.97 C0.96 2.65 0.49 2.33 0 2 C0 1.34 0 0.68 0 0 Z " fill="#F65AA3" transform="translate(595,288)"/>
<path d="M0 0 C0.66 0.33 1.32 0.66 2 1 C0.97 2.56 0.97 2.56 -0.09 4.16 C-6.49 13.89 -12.43 23.77 -18 34 C-19 31 -19 31 -17.45 27.45 C-16.68 26 -15.91 24.56 -15.12 23.12 C-14.72 22.37 -14.32 21.62 -13.9 20.85 C-5.45 5.45 -5.45 5.45 0 0 Z " fill="#F557A0" transform="translate(97,116)"/>
<path d="M0 0 C3.11 2.91 5.39 5.92 7.69 9.5 C9.88 12.88 12.09 16.17 14.55 19.35 C14.97 19.89 15.39 20.43 15.82 20.98 C17.01 22.49 18.21 24 19.41 25.5 C19.93 26.33 20.46 27.15 21 28 C20.67 28.99 20.34 29.98 20 31 C15.2 25.3 10.79 19.42 6.62 13.25 C6.2 12.62 5.77 12 5.33 11.36 C2.88 7.68 1.2 4.3 0 0 Z " fill="#F6569F" transform="translate(128,366)"/>
<path d="M0 0 C22.89 -0.62 22.89 -0.62 31 4 C24.33 4.11 17.67 4.03 11 3.69 C9.14 3.6 9.14 3.6 7.25 3.51 C3.9 2.98 2.44 2.28 0 0 Z " fill="#F55BA5" transform="translate(321,6)"/>
<path d="M0 0 C2.3 2.23 4.52 4.41 6.54 6.9 C11.61 13.16 17.91 18.38 26 20 C26 20.66 26 21.32 26 22 C17.33 21.54 10.65 16.03 4.94 9.94 C1.99 6.65 0.51 4.42 0 0 Z " fill="#F758A1" transform="translate(363,412)"/>
<path d="M0 0 C0.66 0 1.32 0 2 0 C2 6.93 2 13.86 2 21 C1.34 21 0.68 21 0 21 C0.33 25.29 0.66 29.58 1 34 C0.34 33.67 -0.32 33.34 -1 33 C-1.02 28.78 -1.04 24.56 -1.05 20.35 C-1.06 18.91 -1.07 17.48 -1.08 16.04 C-1.09 13.98 -1.09 11.92 -1.1 9.86 C-1.1 8.61 -1.11 7.37 -1.11 6.09 C-1 3 -1 3 0 0 Z " fill="#F84BB2" transform="translate(357,322)"/>
<path d="M0 0 C0.66 0 1.32 0 2 0 C0.53 4.17 -1.56 7.5 -4.06 11.12 C-6.99 15.33 -6.99 15.33 -9 20 C-9.66 20 -10.32 20 -11 20 C-11.27 20.76 -11.54 21.53 -11.81 22.31 C-12.94 24.87 -13.91 26.2 -16 28 C-15.48 22.9 -12.96 19.32 -10.25 15.12 C-9.82 14.44 -9.39 13.76 -8.95 13.06 C-6.11 8.6 -3.22 4.19 0 0 Z " fill="#F659A1" transform="translate(563,106)"/>
<path d="M0 0 C0.87 0.33 0.87 0.33 1.76 0.67 C1.2 1.04 0.65 1.4 0.07 1.78 C-8.38 7.78 -14.28 15.68 -17.24 25.67 C-17.57 25.67 -17.9 25.67 -18.24 25.67 C-18.07 16.98 -13.92 10.69 -8.14 4.38 C-3 -0.44 -3 -0.44 0 0 Z " fill="#F75CA4" transform="translate(377.23828125,143.328125)"/>
<path d="M0 0 C3.4 1.06 6.01 2.01 9 4 C11.75 4.3 14.43 4.51 17.19 4.62 C17.94 4.66 18.69 4.7 19.46 4.74 C21.31 4.84 23.15 4.92 25 5 C24.01 6.49 24.01 6.49 23 8 C15.26 9.47 8.73 6.94 2 3.44 C1.34 2.96 0.68 2.49 0 2 C0 1.34 0 0.68 0 0 Z " fill="#F659A5" transform="translate(190,347)"/>
<path d="M0 0 C-5.69 5.69 -17.33 5.96 -25 6 C-26.68 5.72 -28.35 5.4 -30 5 C-30 4.67 -30 4.34 -30 4 C-29.45 3.91 -28.89 3.83 -28.32 3.74 C-25.8 3.35 -23.27 2.96 -20.75 2.56 C-19.44 2.36 -19.44 2.36 -18.11 2.15 C-16.84 1.96 -16.84 1.96 -15.55 1.75 C-14.77 1.63 -14 1.51 -13.2 1.39 C-11.01 1.03 -11.01 1.03 -8.95 0.46 C-5.97 -0.24 -3.04 -0.06 0 0 Z " fill="#F65EA7" transform="translate(361,465)"/>
<path d="M0 0 C1.21 0.01 1.21 0.01 2.45 0.03 C3.37 0.04 3.37 0.04 4.31 0.06 C4.31 1.05 4.31 2.04 4.31 3.06 C2.46 3 2.46 3 0.56 2.94 C-2.77 2.93 -4.79 3.34 -7.69 5.06 C-8.68 5.06 -9.67 5.06 -10.69 5.06 C-10.69 5.72 -10.69 6.38 -10.69 7.06 C-11.98 8.44 -13.32 9.77 -14.69 11.06 C-15.27 11.64 -15.84 12.22 -16.44 12.81 C-17.06 13.43 -17.06 13.43 -17.69 14.06 C-17.27 9.2 -15.28 7.23 -11.69 4.06 C-7.85 0.9 -4.96 -0.07 0 0 Z " fill="#F55EA1" transform="translate(26.6875,201.9375)"/>
<path d="M0 0 C6.22 1.34 12.37 2.82 18.5 4.5 C19.71 4.82 19.71 4.82 20.95 5.14 C22.99 5.7 25 6.34 27 7 C27.33 7.66 27.66 8.32 28 9 C21.99 8.39 16.43 7.17 10.62 5.5 C9.82 5.27 9.01 5.05 8.18 4.82 C2.3 3.15 2.3 3.15 0 2 C0 1.34 0 0.68 0 0 Z " fill="#F759A6" transform="translate(236,458)"/>
<path d="M0 0 C0.66 0.33 1.32 0.66 2 1 C-7.23 7.52 -7.23 7.52 -13 9 C-13 9.66 -13 10.32 -13 11 C-14.79 11.67 -16.58 12.34 -18.38 13 C-19.37 13.37 -20.37 13.74 -21.4 14.12 C-24 15 -24 15 -26 15 C-26 14.34 -26 13.68 -26 13 C-25.39 12.71 -24.78 12.43 -24.15 12.13 C-21.37 10.82 -18.59 9.5 -15.81 8.19 C-14.37 7.51 -14.37 7.51 -12.9 6.82 C-11.97 6.38 -11.04 5.94 -10.08 5.48 C-9.23 5.08 -8.37 4.67 -7.5 4.26 C-4.92 3.01 -4.92 3.01 -2.31 1.28 C-1.55 0.86 -0.78 0.44 0 0 Z " fill="#F759A3" transform="translate(409,443)"/>
<path d="M0 0 C0.99 0.33 1.98 0.66 3 1 C-3.27 7.27 -9.54 13.54 -16 20 C-16.33 19.01 -16.66 18.02 -17 17 C-11.33 11.33 -5.67 5.67 0 0 Z " fill="#F65BA4" transform="translate(211,288)"/>
<path d="M0 0 C5.54 0.35 8.38 2.61 12.19 6.38 C12.71 6.87 13.23 7.37 13.76 7.88 C16.21 10.21 18.62 12.59 21 15 C20.34 15.66 19.68 16.32 19 17 C14.23 13 9.68 8.89 5.44 4.31 C3.77 2.79 2.06 1.92 0 1 C0 0.67 0 0.34 0 0 Z " fill="#F659A2" transform="translate(32,204)"/>
<path d="M0 0 C0.33 0.66 0.66 1.32 1 2 C0.38 2.15 -0.23 2.29 -0.87 2.45 C-8.29 4.41 -14.53 7.53 -20 13 C-20.99 12.67 -21.98 12.34 -23 12 C-16.79 6.2 -8.96 -0.68 0 0 Z " fill="#F758A5" transform="translate(135,213)"/>
<path d="M0 0 C0.99 0.5 0.99 0.5 2 1 C2.31 3.52 2.31 3.52 2.44 6.81 C2.84 13.48 4.16 19.59 6 26 C5.01 25.67 4.02 25.34 3 25 C-0.7 17.16 -0.33 8.46 0 0 Z " fill="#F658A1" transform="translate(357,385)"/>
<path d="M0 0 C-0.33 0.66 -0.66 1.32 -1 2 C-3.55 2.81 -6.03 3.5 -8.62 4.12 C-9.67 4.4 -9.67 4.4 -10.75 4.68 C-15.28 5.8 -19.33 6.18 -24 6 C-21.09 3.09 -17.58 2.75 -13.69 1.88 C-12.93 1.69 -12.17 1.51 -11.38 1.32 C-7.52 0.43 -3.99 -0.24 0 0 Z " fill="#F55AA2" transform="translate(380,516)"/>
<path d="M0 0 C2.89 1.45 3.35 3.67 4.39 6.59 C5.48 10.88 5.31 15.11 5.19 19.5 C5.17 20.42 5.16 21.34 5.15 22.28 C5.11 24.52 5.06 26.76 5 29 C4.67 29 4.34 29 4 29 C3.88 27.78 3.76 26.56 3.63 25.31 C3.46 23.68 3.29 22.06 3.12 20.44 C3.01 19.24 3.01 19.24 2.89 18.01 C2.37 13.14 1.39 8.72 0 4 C0 2.68 0 1.36 0 0 Z " fill="#F758A4" transform="translate(620,315)"/>
<path d="M0 0 C0.66 0 1.32 0 2 0 C0.11 8.94 -7.06 13.81 -14 19 C-14.66 18.67 -15.32 18.34 -16 18 C-13.62 15.55 -11.34 13.25 -8.56 11.25 C-5.41 8.48 -3.51 5.39 -1.33 1.83 C-0.89 1.22 -0.45 0.62 0 0 Z " fill="#F659A2" transform="translate(608,267)"/>
<path d="M0 0 C3.74 1.46 5.05 3.23 7 6.69 C7.51 7.58 8.01 8.47 8.54 9.39 C9.02 10.25 9.5 11.11 10 12 C10.43 12.68 10.86 13.37 11.31 14.07 C14.09 18.51 14.09 18.51 13.6 21.2 C13.4 21.79 13.2 22.39 13 23 C12.68 22.41 12.35 21.82 12.02 21.21 C10.56 18.54 9.09 15.86 7.62 13.19 C7.12 12.26 6.61 11.33 6.09 10.37 C5.35 9.03 5.35 9.03 4.6 7.67 C4.15 6.85 3.7 6.02 3.24 5.18 C2.23 3.41 1.13 1.69 0 0 Z " fill="#F7599E" transform="translate(113,342)"/>
<path d="M0 0 C2 3 2 3 1.5 5.69 C-1.18 11.61 -5.23 16.6 -10 21 C-10.99 20.67 -11.98 20.34 -13 20 C-9.83 16.11 -6.55 12.55 -3 9 C-0.87 5.81 -0.5 3.73 0 0 Z " fill="#F65AA4" transform="translate(300,262)"/>
<path d="M0 0 C0.99 0.66 1.98 1.32 3 2 C2 3 2 3 -1.69 3.11 C-3.34 3.11 -4.98 3.11 -6.63 3.1 C-7.93 3.1 -7.93 3.1 -9.25 3.09 C-12.02 3.09 -14.79 3.08 -17.56 3.06 C-19.44 3.06 -21.31 3.05 -23.19 3.05 C-27.79 3.04 -32.4 3.02 -37 3 C-37 2.67 -37 2.34 -37 2 C-36.02 1.97 -35.04 1.95 -34.03 1.92 C-30.4 1.83 -26.76 1.73 -23.12 1.63 C-21.55 1.58 -19.97 1.54 -18.4 1.5 C-16.14 1.44 -13.87 1.38 -11.61 1.32 C-10.56 1.29 -10.56 1.29 -9.48 1.27 C-6.79 1.18 -4.32 1.09 -1.71 0.36 C-1.15 0.24 -0.58 0.12 0 0 Z " fill="#F7549C" transform="translate(538,133)"/>
<path d="M0 0 C1.83 3.13 2.24 5.38 2.2 8.98 C2.19 9.92 2.18 10.85 2.18 11.82 C2.16 12.78 2.14 13.75 2.12 14.75 C2.12 15.73 2.11 16.72 2.1 17.73 C2.07 20.15 2.04 22.58 2 25 C1.34 25 0.68 25 0 25 C0.01 23.81 0.02 22.62 0.04 21.39 C0.04 19.82 0.05 18.25 0.06 16.69 C0.07 15.9 0.08 15.12 0.09 14.31 C0.09 13.55 0.09 12.79 0.1 12.01 C0.1 11.32 0.11 10.62 0.11 9.9 C0.07 7.78 0.07 7.78 -1 5 C-0.56 2.31 -0.56 2.31 0 0 Z " fill="#F5529D" transform="translate(357,246)"/>
<path d="M0 0 C1.12 3.36 0.86 5.57 0 8.98 C-0.22 9.92 -0.45 10.85 -0.69 11.82 C-0.94 12.78 -1.18 13.75 -1.44 14.75 C-1.68 15.73 -1.92 16.72 -2.17 17.73 C-2.77 20.16 -3.38 22.58 -4 25 C-4.33 25 -4.66 25 -5 25 C-5.59 16.57 -3.53 8.97 -1 1 C-0.67 0.67 -0.34 0.34 0 0 Z " fill="#F759A2" transform="translate(60,194)"/>
<path d="M0 0 C1.13 0.09 1.13 0.09 2.28 0.18 C11.18 0.89 20.09 1.46 29 2 C29 2.33 29 2.66 29 3 C24.92 3.03 20.83 3.05 16.75 3.06 C15.01 3.08 15.01 3.08 13.24 3.09 C12.12 3.09 11.01 3.09 9.86 3.1 C8.32 3.11 8.32 3.11 6.75 3.11 C4.32 3.01 2.31 2.7 0 2 C0 1.34 0 0.68 0 0 Z " fill="#F7569F" transform="translate(391,434)"/>
<path d="M0 0 C7.59 0.49 14.67 2 22 4 C22 4.33 22 4.66 22 5 C15.05 5.27 8.76 4.61 2 3 C2 2.34 2 1.68 2 1 C1.34 0.67 0.68 0.34 0 0 Z " fill="#F656A3" transform="translate(250,518)"/>
<path d="M0 0 C1.12 3.75 1.12 3.75 0 6 C-0.66 6 -1.32 6 -2 6 C-2.23 7.03 -2.45 8.06 -2.69 9.12 C-3.86 13.34 -6.05 15.82 -9 19 C-10 16 -10 16 -8.93 13.73 C-8.39 12.89 -7.86 12.05 -7.31 11.19 C-6.48 9.87 -6.48 9.87 -5.64 8.52 C-3.78 5.66 -1.92 2.81 0 0 Z " fill="#F65BA5" transform="translate(621,355)"/>
<path d="M0 0 C0.66 0 1.32 0 2 0 C0.08 7.51 -2.24 14.76 -5 22 C-5.33 22 -5.66 22 -6 22 C-5.53 14.16 -2.77 7.28 0 0 Z " fill="#F65AA1" transform="translate(67,171)"/>
<path d="M0 0 C0.66 0 1.32 0 2 0 C3.55 1.57 3.55 1.57 5.31 3.69 C7.43 6.19 9.54 8.58 11.94 10.81 C14 13 14 13 14 16 C12 16 12 16 10.45 14.46 C9.87 13.77 9.29 13.08 8.69 12.38 C8.07 11.65 7.46 10.92 6.82 10.17 C5.92 9.1 5.92 9.1 5 8 C4.48 7.41 3.96 6.81 3.43 6.2 C0 2.24 0 2.24 0 0 Z " fill="#F55AA2" transform="translate(150,397)"/>
<path d="M0 0 C0.66 0 1.32 0 2 0 C3.77 2.43 5.43 4.85 7.06 7.38 C7.75 8.42 7.75 8.42 8.46 9.49 C11.8 14.6 11.8 14.6 13 17 C9.37 16.4 9.06 16.08 6.64 12.91 C5.83 11.64 5.03 10.35 4.25 9.06 C3.84 8.42 3.43 7.77 3 7.1 C0 2.3 0 2.3 0 0 Z " fill="#F6579F" transform="translate(453,117)"/>
<path d="M0 0 C0.66 0 1.32 0 2 0 C0.41 4.52 -1.92 8.32 -4.5 12.31 C-4.9 12.96 -5.31 13.6 -5.72 14.27 C-6.76 15.88 -7.87 17.45 -9 19 C-9.66 19 -10.32 19 -11 19 C-9.41 14.48 -7.08 10.68 -4.5 6.69 C-4.1 6.04 -3.69 5.4 -3.28 4.73 C-2.24 3.12 -1.13 1.55 0 0 Z " fill="#F559A0" transform="translate(605,98)"/>
<path d="M0 0 C6.93 0 13.86 0 21 0 C16.09 2.45 12.83 3.14 7.38 3.12 C5.93 3.13 5.93 3.13 4.46 3.13 C2 3 2 3 0 2 C0 1.34 0 0.68 0 0 Z " fill="#F85BA4" transform="translate(503,436)"/>
<path d="M0 0 C0.33 0.99 0.66 1.98 1 3 C0.1 4.63 0.1 4.63 -1.31 6.36 C-1.81 6.98 -2.31 7.6 -2.82 8.24 C-3.36 8.88 -3.89 9.53 -4.44 10.19 C-4.97 10.84 -5.5 11.5 -6.04 12.17 C-7.35 13.79 -8.67 15.39 -10 17 C-11 14 -11 14 -10 11 C-8.36 9.31 -6.69 7.65 -5 6 C-3.29 4.03 -1.65 2.02 0 0 Z " fill="#F75AA2" transform="translate(156,132)"/>
<path d="M0 0 C4.29 0.48 6.77 3.22 9.75 6.06 C10.26 6.53 10.76 7.01 11.29 7.49 C12.53 8.66 13.77 9.83 15 11 C14.01 11.33 13.02 11.66 12 12 C10 10.19 8 8.38 6 6.56 C5.43 6.05 4.86 5.53 4.27 5 C2.82 3.69 1.41 2.35 0 1 C0 0.67 0 0.34 0 0 Z " fill="#F657A2" transform="translate(166,415)"/>
<path d="M0 0 C0.99 0.33 1.98 0.66 3 1 C-3.44 6.94 -3.44 6.94 -10 13 C-10.99 12.67 -11.98 12.34 -13 12 C-11.68 11.34 -10.36 10.68 -9 10 C-9 9.34 -9 8.68 -9 8 C-7.29 6.31 -7.29 6.31 -5.06 4.44 C-4.33 3.82 -3.6 3.2 -2.85 2.56 C-1.93 1.79 -1.93 1.79 -1 1 C-0.67 0.67 -0.34 0.34 0 0 Z " fill="#F75BA0" transform="translate(124,266)"/>
<path d="M0 0 C0.33 0.99 0.66 1.98 1 3 C-7.08 10.85 -7.08 10.85 -13 11 C-13 10.34 -13 9.68 -13 9 C-12.48 8.77 -11.96 8.54 -11.43 8.3 C-6.71 6.1 -3.46 3.89 0 0 Z " fill="#F55BA4" transform="translate(572,345)"/>
<path d="M0 0 C0.33 0 0.66 0 1 0 C1 7.26 1 14.52 1 22 C0.34 22.33 -0.32 22.66 -1 23 C-1.19 21.19 -1.38 19.38 -1.56 17.56 C-1.67 16.55 -1.77 15.54 -1.88 14.5 C-1.94 13.26 -1.94 13.26 -2 12 C-1.67 11.67 -1.34 11.34 -1 11 C-0.77 9.15 -0.59 7.3 -0.44 5.44 C-0.35 4.43 -0.27 3.41 -0.18 2.37 C-0.12 1.59 -0.06 0.81 0 0 Z " fill="#F656A2" transform="translate(358,298)"/>
<path d="M0 0 C3.78 1.47 5.17 3.35 7.19 6.81 C7.95 8.09 7.95 8.09 8.73 9.39 C9.98 11.97 10.58 14.18 11 17 C10.34 17 9.68 17 9 17 C8.6 16.19 8.2 15.38 7.79 14.55 C7.26 13.48 6.73 12.41 6.19 11.31 C5.67 10.26 5.14 9.2 4.61 8.11 C3.17 5.33 1.64 2.66 0 0 Z " fill="#F35BA1" transform="translate(676,150)"/>
<path d="M0 0 C2.58 3.08 4.99 6.28 7.31 9.56 C7.84 10.31 8.38 11.05 8.93 11.82 C10 14 10 14 9.67 16.28 C9.45 16.85 9.23 17.41 9 18 C7.49 15.76 5.99 13.51 4.5 11.25 C4.07 10.62 3.64 9.98 3.2 9.33 C0.92 5.86 0 4.26 0 0 Z " fill="#F659A2" transform="translate(483,105)"/>
<path d="M0 0 C-2.46 1.23 -4.92 2.46 -7.38 3.68 C-9.44 4.72 -11.47 5.79 -13.5 6.88 C-14.32 7.25 -15.15 7.62 -16 8 C-16.66 7.67 -17.32 7.34 -18 7 C-15.54 4.19 -12.94 2.81 -9.56 1.25 C-8.62 0.8 -7.67 0.35 -6.69 -0.11 C-3.88 -1.04 -2.72 -1.05 0 0 Z " fill="#F658A0" transform="translate(214,26)"/>
<path d="M0 0 C0.71 1.55 0.71 1.55 1 4 C-0.05 6.54 -1.14 8.84 -2.44 11.25 C-2.78 11.9 -3.11 12.55 -3.46 13.22 C-4.3 14.82 -5.15 16.41 -6 18 C-6.71 16.45 -6.71 16.45 -7 14 C-5.95 11.46 -4.86 9.16 -3.56 6.75 C-3.22 6.1 -2.89 5.45 -2.54 4.78 C-1.7 3.18 -0.85 1.59 0 0 Z " fill="#F6579F" transform="translate(76,152)"/>
<path d="M0 0 C0.33 0.99 0.66 1.98 1 3 C-0.58 5.92 -0.58 5.92 -2.81 9.19 C-3.9 10.82 -3.9 10.82 -5.02 12.48 C-5.67 13.31 -6.33 14.14 -7 15 C-7.66 15 -8.32 15 -9 15 C-8.69 14.42 -8.38 13.84 -8.06 13.25 C-6.93 11.1 -6.93 11.1 -6.62 9 C-5.76 6.25 -4.08 4.95 -2 3 C-1.34 2.01 -0.68 1.02 0 0 Z " fill="#F657A0" transform="translate(592,118)"/>
<path d="M0 0 C0 0.33 0 0.66 0 1 C-5.88 1.86 -11.56 2.13 -17.5 2.06 C-18.32 2.06 -19.14 2.05 -19.99 2.05 C-21.99 2.04 -24 2.02 -26 2 C-26 1.67 -26 1.34 -26 1 C-8.14 -1.48 -8.14 -1.48 0 0 Z " fill="#F6519F" transform="translate(316,6)"/>
<path d="M0 0 C1.58 0.11 3.17 0.24 4.75 0.38 C6.07 0.48 6.07 0.48 7.42 0.59 C9.99 1 11.76 1.71 14 3 C14 3.33 14 3.66 14 4 C8.81 4.21 4.87 3.59 0 2 C0 1.34 0 0.68 0 0 Z " fill="#F65AA5" transform="translate(234,514)"/>
<path d="M0 0 C-2.46 2.46 -4.27 2.77 -7.62 3.62 C-8.63 3.89 -9.63 4.15 -10.66 4.41 C-11.43 4.61 -12.21 4.8 -13 5 C-13 4.01 -13 3.02 -13 2 C-11.59 1.47 -10.17 0.95 -8.75 0.44 C-7.96 0.15 -7.17 -0.14 -6.36 -0.44 C-3.81 -1.05 -2.45 -0.85 0 0 Z " fill="#F75AA6" transform="translate(379,460)"/>
<path d="M0 0 C0.8 0.01 1.6 0.02 2.42 0.03 C3.03 0.04 3.63 0.05 4.25 0.06 C4.25 0.72 4.25 1.38 4.25 2.06 C-0.37 2.72 -4.99 3.38 -9.75 4.06 C-9.42 3.07 -9.09 2.08 -8.75 1.06 C-5.86 -0.06 -3.07 -0.05 0 0 Z " fill="#F75BA3" transform="translate(258.75,10.9375)"/>
<path d="M0 0 C0.66 0.33 1.32 0.66 2 1 C0.88 2.29 -0.25 3.58 -1.38 4.88 C-2 5.59 -2.63 6.31 -3.27 7.05 C-4.47 8.41 -5.72 9.72 -7 11 C-7.99 10.67 -8.98 10.34 -10 10 C-6.7 6.7 -3.4 3.4 0 0 Z " fill="#F75AA3" transform="translate(284,285)"/>
<path d="M0 0 C0.66 0.33 1.32 0.66 2 1 C-0.12 3.32 -2.12 4.75 -4.94 6.12 C-5.61 6.46 -6.28 6.79 -6.96 7.13 C-8.96 7.98 -10.88 8.54 -13 9 C-13 8.34 -13 7.68 -13 7 C-10.88 5.8 -8.75 4.62 -6.62 3.44 C-6.02 3.1 -5.42 2.75 -4.8 2.4 C-3.23 1.54 -1.62 0.76 0 0 Z " fill="#F65AA0" transform="translate(194,32)"/>
<path d="M0 0 C5.79 -0.21 10.43 0.41 16 2 C16 2.33 16 2.66 16 3 C10.26 3.2 5.39 3.27 0 1 C0 0.67 0 0.34 0 0 Z " fill="#F759A4" transform="translate(265,467)"/>
<path d="M0 0 C0.66 0 1.32 0 2 0 C1.75 3.41 0.74 4.25 -1.81 6.69 C-6.24 9.9 -6.24 9.9 -9 10 C-9.66 9.34 -10.32 8.68 -11 8 C-9.27 7.28 -7.55 6.57 -5.82 5.85 C-3.73 4.93 -3.73 4.93 -1 3 C-0.67 2.01 -0.34 1.02 0 0 Z " fill="#F75BA5" transform="translate(563,261)"/>
<path d="M0 0 C0.66 0 1.32 0 2 0 C1.46 5.28 0.23 9.26 -2 14 C-3.25 10.45 -2.72 8.28 -1.56 4.75 C-1.28 3.86 -0.99 2.97 -0.69 2.05 C-0.46 1.37 -0.24 0.7 0 0 Z " fill="#F758A2" transform="translate(114,207)"/>
<path d="M0 0 C2.6 3.9 2.15 7.47 2 12 C1.01 12.5 1.01 12.5 0 13 C-1.33 9.01 -1.14 5.16 -1 1 C-0.67 0.67 -0.34 0.34 0 0 Z " fill="#F945AF" transform="translate(688,188)"/>
<path d="M0 0 C1.71 1.62 3.37 3.29 5 5 C5 5.66 5 6.32 5 7 C6.32 7.66 7.64 8.32 9 9 C8.01 9.33 7.02 9.66 6 10 C5.01 9.34 4.02 8.68 3 8 C3 7.34 3 6.68 3 6 C2.34 6 1.68 6 1 6 C0.67 4.02 0.34 2.04 0 0 Z " fill="#F65DA8" transform="translate(420,384)"/>
<path d="M0 0 C0.66 0.33 1.32 0.66 2 1 C-0.64 3.64 -3.28 6.28 -6 9 C-6.99 8.67 -7.98 8.34 -9 8 C-7.88 6.85 -6.75 5.71 -5.62 4.56 C-5 3.92 -4.37 3.29 -3.73 2.63 C-2 1 -2 1 0 0 Z " fill="#F6579F" transform="translate(109,280)"/>
<path d="M0 0 C-3.73 3.57 -8.09 4.11 -13 5 C-13 4.34 -13 3.68 -13 3 C-8.38 0.78 -5.23 -0.38 0 0 Z " fill="#F75CA4" transform="translate(393,137)"/>
<path d="M0 0 C-5.53 2.11 -10.07 3.38 -16 3 C-11.08 0.13 -5.54 -1.74 0 0 Z " fill="#F7549E" transform="translate(259,70)"/>
<path d="M0 0 C3.32 1.11 3.62 1.48 5.25 4.38 C5.78 5.28 5.78 5.28 6.33 6.21 C7 8 7 8 6 11 C4.99 9.55 4 8.09 3 6.62 C2.16 5.41 2.16 5.41 1.31 4.16 C0 2 0 2 0 0 Z " fill="#F758A2" transform="translate(494,124)"/>
<path d="M0 0 C-2.5 2.5 -3.67 2.36 -7.12 2.62 C-8.04 2.7 -8.95 2.77 -9.88 2.85 C-10.93 2.93 -10.93 2.93 -12 3 C-11 1 -11 1 -9.38 0.38 C-6.23 -0.12 -3.17 -0.06 0 0 Z " fill="#F84EA8" transform="translate(361,465)"/>
<path d="M0 0 C4.13 0.61 7.33 2.04 11 4 C10.67 4.66 10.34 5.32 10 6 C6.7 4.35 3.4 2.7 0 1 C0 0.67 0 0.34 0 0 Z " fill="#F757A2" transform="translate(221,452)"/>
<path d="M0 0 C0.33 0 0.66 0 1 0 C1.37 3.94 1.3 5.57 -1 8.88 C-1.66 9.58 -2.32 10.28 -3 11 C-2.53 6.94 -2.12 3.53 0 0 Z " fill="#F65BA4" transform="translate(614,254)"/>
<path d="M0 0 C4.56 0.44 7.58 0.85 11 4 C6.44 3.56 3.42 3.15 0 0 Z " fill="#F65BA5" transform="translate(577,191)"/>
<path d="M0 0 C4.43 5.14 4.43 5.14 5 9 C2 8 2 8 0.81 6.19 C0 4 0 4 0 0 Z " fill="#F7529C" transform="translate(183,335)"/>
<path d="M0 0 C0.66 0.33 1.32 0.66 2 1 C0.35 3.64 -1.3 6.28 -3 9 C-3.33 8.01 -3.66 7.02 -4 6 C-2.06 2.81 -2.06 2.81 0 0 Z " fill="#F7569E" transform="translate(570,95)"/>
<path d="M0 0 C0.99 0.33 1.98 0.66 3 1 C0.03 3.48 0.03 3.48 -3 6 C-3.33 5.01 -3.66 4.02 -4 3 C-2.19 1.44 -2.19 1.44 0 0 Z " fill="#F758A3" transform="translate(605,377)"/>
<path d="M0 0 C0.66 0 1.32 0 2 0 C0.75 3.46 -0.68 6.15 -3 9 C-2.5 5.27 -2.13 3.19 0 0 Z " fill="#F758A0" transform="translate(186,314)"/>
<path d="M0 0 C-1.15 2.47 -2.05 4.05 -4 6 C-4.99 5.67 -5.98 5.34 -7 5 C-2.25 0 -2.25 0 0 0 Z " fill="#F659A0" transform="translate(99,290)"/>
<path d="M0 0 C0.99 0.33 1.98 0.66 3 1 C3.19 3.38 3.19 3.38 3 6 C1.51 6.99 1.51 6.99 0 8 C0 5.36 0 2.72 0 0 Z " fill="#F84CAA" transform="translate(687,205)"/>
<path d="" fill="#FF2AFF" transform="translate(0,0)"/>
<path d="M0 0 C3 1 3 1 3 1 Z " fill="#FF718E" transform="translate(272,68)"/>
<path d="M0 0 C2 1 2 1 2 1 Z " fill="#FF00FF" transform="translate(149,472)"/>
<path d="M0 0 C2 1 2 1 2 1 Z " fill="#FF40FF" transform="translate(364,461)"/>
<path d="M0 0 C2 1 2 1 2 1 Z " fill="#FF2AD4" transform="translate(208,356)"/>
<path d="M0 0 C2 1 2 1 2 1 Z " fill="#FF00FF" transform="translate(80,307)"/>
<path d="" fill="#FF00FF" transform="translate(0,0)"/>
<path d="" fill="#FF00FF" transform="translate(0,0)"/>
<path d="M0 0 C2 1 2 1 2 1 Z " fill="#FF40DF" transform="translate(196,29)"/>
<path d="" fill="#FF8080" transform="translate(0,0)"/>
<path d="" fill="#FF00FF" transform="translate(0,0)"/>
<path d="" fill="#FF00FF" transform="translate(0,0)"/>
<path d="" fill="#FF8080" transform="translate(0,0)"/>
<path d="" fill="#FF00FF" transform="translate(0,0)"/>
<path d="" fill="#FF00FF" transform="translate(0,0)"/>
<path d="" fill="#FF00FF" transform="translate(0,0)"/>
<path d="" fill="#FF8080" transform="translate(0,0)"/>
<path d="" fill="#FF00FF" transform="translate(0,0)"/>
<path d="" fill="#FF00FF" transform="translate(0,0)"/>
<path d="" fill="#FF8080" transform="translate(0,0)"/>
<path d="" fill="#FF00FF" transform="translate(0,0)"/>
<path d="" fill="#FF00FF" transform="translate(0,0)"/>
<path d="" fill="#FF55AA" transform="translate(0,0)"/>
<path d="" fill="#FF00FF" transform="translate(0,0)"/>
<path d="" fill="#FF00FF" transform="translate(0,0)"/>
<path d="" fill="#FF00FF" transform="translate(0,0)"/>
<path d="" fill="#FF00FF" transform="translate(0,0)"/>
<path d="" fill="#FF8080" transform="translate(0,0)"/>
<path d="" fill="#FF8080" transform="translate(0,0)"/>
<path d="" fill="#FF00FF" transform="translate(0,0)"/>
<path d="" fill="#FF00FF" transform="translate(0,0)"/>
<path d="" fill="#FF00FF" transform="translate(0,0)"/>
<path d="" fill="#FF00FF" transform="translate(0,0)"/>
<path d="" fill="#FF00FF" transform="translate(0,0)"/>
<path d="" fill="#FF00FF" transform="translate(0,0)"/>
<path d="" fill="#FF00FF" transform="translate(0,0)"/>
<path d="" fill="#FF00FF" transform="translate(0,0)"/>
<path d="" fill="#FF00FF" transform="translate(0,0)"/>
<path d="" fill="#FF8080" transform="translate(0,0)"/>
<path d="" fill="#FF8080" transform="translate(0,0)"/>
<path d="" fill="#FF00FF" transform="translate(0,0)"/>
<path d="" fill="#FF00FF" transform="translate(0,0)"/>
<path d="" fill="#FF00FF" transform="translate(0,0)"/>
<path d="" fill="#FF00FF" transform="translate(0,0)"/>
<path d="" fill="#FF00FF" transform="translate(0,0)"/>
<path d="" fill="#FF00FF" transform="translate(0,0)"/>
<path d="" fill="#FF8080" transform="translate(0,0)"/>
<path d="" fill="#FF00FF" transform="translate(0,0)"/>
<path d="" fill="#FF8080" transform="translate(0,0)"/>
<path d="" fill="#FF00FF" transform="translate(0,0)"/>
<path d="" fill="#FF00FF" transform="translate(0,0)"/>
<path d="" fill="#FF00FF" transform="translate(0,0)"/>
<path d="" fill="#FF80BF" transform="translate(0,0)"/>
<path d="" fill="#FF00FF" transform="translate(0,0)"/>
<path d="" fill="#FF00FF" transform="translate(0,0)"/>
<path d="" fill="#FF00FF" transform="translate(0,0)"/>
<path d="" fill="#FF00FF" transform="translate(0,0)"/>
<path d="" fill="#FF00FF" transform="translate(0,0)"/>
<path d="" fill="#FF8080" transform="translate(0,0)"/>
<path d="" fill="#FF00FF" transform="translate(0,0)"/>
<path d="" fill="#FF00FF" transform="translate(0,0)"/>
<path d="" fill="#FF00FF" transform="translate(0,0)"/>
<path d="" fill="#FF00FF" transform="translate(0,0)"/>
<path d="" fill="#FF00FF" transform="translate(0,0)"/>
<path d="" fill="#FF00FF" transform="translate(0,0)"/>
<path d="" fill="#FF8080" transform="translate(0,0)"/>
<path d="" fill="#FF00FF" transform="translate(0,0)"/>
<path d="" fill="#FF00FF" transform="translate(0,0)"/>
<path d="" fill="#FF00FF" transform="translate(0,0)"/>
<path d="" fill="#FF00FF" transform="translate(0,0)"/>
<path d="" fill="#FF00FF" transform="translate(0,0)"/>
<path d="" fill="#FF00FF" transform="translate(0,0)"/>
<path d="" fill="#FF00FF" transform="translate(0,0)"/>
<path d="" fill="#FF00FF" transform="translate(0,0)"/>
<path d="" fill="#FF00FF" transform="translate(0,0)"/>
<path d="" fill="#FF00FF" transform="translate(0,0)"/>
<path d="" fill="#FF00FF" transform="translate(0,0)"/>
<path d="" fill="#FF00FF" transform="translate(0,0)"/>
<path d="" fill="#FF00FF" transform="translate(0,0)"/>
<path d="" fill="#FF00FF" transform="translate(0,0)"/>
<path d="" fill="#FF80BF" transform="translate(0,0)"/>
<path d="" fill="#FF00FF" transform="translate(0,0)"/>
<path d="" fill="#FF8080" transform="translate(0,0)"/>
<path d="" fill="#FF8080" transform="translate(0,0)"/>
<path d="" fill="#FF00FF" transform="translate(0,0)"/>
<path d="" fill="#FF00FF" transform="translate(0,0)"/>
<path d="" fill="#FF8080" transform="translate(0,0)"/>
<path d="" fill="#FF8080" transform="translate(0,0)"/>
<path d="" fill="#FF00FF" transform="translate(0,0)"/>
<path d="" fill="#FF8080" transform="translate(0,0)"/>
<path d="" fill="#FF00FF" transform="translate(0,0)"/>
<path d="" fill="#FF00FF" transform="translate(0,0)"/>
<path d="" fill="#FF8080" transform="translate(0,0)"/>
<path d="" fill="#FF00FF" transform="translate(0,0)"/>
<path d="" fill="#FF00FF" transform="translate(0,0)"/>
<path d="" fill="#FF00FF" transform="translate(0,0)"/>
<path d="" fill="#FF00FF" transform="translate(0,0)"/>
<path d="" fill="#FF00FF" transform="translate(0,0)"/>
</svg>
